<svg width="16" height="16" viewBox="0 0 16 16" version="2.0" xmlns="http://www.w3.org/2000/svg" xmlns:xlink="http://www.w3.org/1999/xlink" xmlns:figma="http://www.figma.com/figma/ns">

<desc>Created using Figma 0.90</desc>
<g id="Canvas-svg-loader-88" transform="translate(264 -1728)" figma:type="canvas">
<g id="file-svg-loader-88" style="mix-blend-mode:normal;" figma:type="vector">
<use xlink:href="#path0_fill-svg-loader-88" transform="translate(-264 1728)" style="mix-blend-mode:normal;"></use>
</g>
</g>
<defs>
<path id="path0_fill-svg-loader-88" d="M 11 6.5C 11 7.32843 10.3284 8 9.5 8C 8.67157 8 8 7.32843 8 6.5C 8 5.67157 8.67157 5 9.5 5C 10.3284 5 11 5.67157 11 6.5ZM 9 15L 1 15L 1 7L 7.05001 7C 7.24885 7.97957 8.02043 8.75115 9 8.94999L 9 15ZM 1 6L 1 1L 15 1L 15 15L 10 15L 10 8.94999C 11.1411 8.71836 12 7.70948 12 6.5C 12 5.11929 10.8807 4 9.5 4C 8.29052 4 7.28164 4.85888 7.05001 6L 1 6ZM 0 15L 0 16L 1 16L 9 16L 10 16L 15 16L 16 16L 16 15L 16 1L 16 0L 15 0L 1 0L 0 0L 0 1L 0 6L 0 7L 0 15Z"></path>
</defs>
</svg>