<svg width="16" height="16" viewBox="0 0 16 16" version="2.0" xmlns="http://www.w3.org/2000/svg" xmlns:xlink="http://www.w3.org/1999/xlink" xmlns:figma="http://www.figma.com/figma/ns">

<desc>Created using Figma 0.90</desc>
<g id="Canvas-svg-loader-87" transform="translate(264 -1678)" figma:type="canvas">
<g id="project-svg-loader-87" style="mix-blend-mode:normal;" figma:type="vector">
<use xlink:href="#path0_fill-svg-loader-87" transform="translate(-264 1678)" style="mix-blend-mode:normal;"></use>
</g>
</g>
<defs>
<path id="path0_fill-svg-loader-87" d="M 15 11L 5 11L 5 1L 15 1L 15 11ZM 12 12L 15 12L 16 12L 16 11L 16 1L 16 0L 15 0L 5 0L 4 0L 4 1L 4 4L 0 4L 0 16L 12 16L 12 12ZM 11 15L 1 15L 1 5L 4 5L 4 11L 4 12L 5 12L 11 12L 11 15Z"></path>
</defs>
</svg>